<svg xmlns="http://www.w3.org/2000/svg" xmlns:xlink="http://www.w3.org/1999/xlink" id="Layer_1" x="0px" y="0px" viewBox="0 0 594 613" style="enable-background:new 0 0 594 613;" xml:space="preserve"><style type="text/css">	.st0{fill:#000000;}	.st1{fill-rule:evenodd;clip-rule:evenodd;fill:#000000;}	.st2{fill:#FC9009;}	.st3{fill-rule:evenodd;clip-rule:evenodd;fill:#FC9009;}</style><g id="Layer_00000145761436726465043410000015983847324490288785_">	<path id="Layer" class="st0" d="M118.4,233.3l-36.6,2L70.3,355.2L44.4,237.3l-36.6,2l9.1,167.5l23-1.3L33.4,287l26.1,117.4  l24.9-1.4l11.7-121l6.6,120.1l24.9-1.4L118.4,233.3z"></path>	<path id="Layer_00000079486076973529869640000010504351475971580559_" class="st0" d="M166.9,254l-0.9-22.3l-26.3,1l0.4,11.1  l6,156.6l26.3-1L166.9,254z"></path>	<path id="Layer_00000100378023390064276090000010226414992485784737_" class="st0" d="M260.2,372.8l-43.4,1.1l-1.2-101.3l-0.3-24.6  L189,237.9l0.3,24.7l1.8,136.1l69.7-1.8L260.2,372.8z"></path>	<path id="Layer_00000104697519532553532220000008410594595332259506_" class="st0" d="M341.2,371.8l-43.4,0.5l-0.7-136.6l-26,37.2  l0.6,123.7l69.8-0.8L341.2,371.8z"></path>	<path id="Layer_00000086679497623998026430000011204600334115488923_" class="st0" d="M360.2,255.7v19.8v120.4h26.4V265.4v-19.7  L360.2,255.7z"></path>	<path id="Layer_00000040550347013351773330000004960420102139984257_" class="st1" d="M484.8,269.5l-1.2,87.2  c-0.4,26.8-14.7,42-40.6,41.6c-25.8-0.3-39.8-15.9-39.4-42.7l1.2-87.2c0-3.6,0.4-7,0.9-10.2c2.1-12.1,7.7-20.9,16.6-26.1  c3.2-1.9,6.8-3.3,10.9-4.2c3.5-0.8,7.3-1.2,11.4-1.2h0.8C471.3,227.1,485.2,242.6,484.8,269.5L484.8,269.5z M458.4,267.3  c0.2-12-5-16.6-13.4-16.7c-8.4-0.1-13.7,4.4-13.9,16.4l-1.2,90.6c-0.2,12,5,16.6,13.4,16.7c8.4,0.2,13.7-4.3,13.9-16.3L458.4,267.3  z"></path>	<path id="Layer_00000035510916447286423320000017730805981353692807_" class="st0" d="M564.7,231.5l-3.3,100.4l-23.8-101.3  l-33.1-1.1L499,397.2l23.7,0.8l4-121.4l28.9,122.5l27.1,0.9l5.5-167.7L564.7,231.5z"></path>	<path id="Layer_00000020375829251381578830000015418183143608321956_" class="st0" d="M101.9,562.6l-1.2-22.3l-24.9,1.4l1.3,23.9  c0.3,6.1-0.8,10.3-3.2,13c-2.2,2.6-5.5,3.8-9.6,4s-7.6-0.6-10.1-3c-2.6-2.4-4.2-6.4-4.5-12.5l-2.1-37.6l-1.2-22l-1.7-30.8  c-0.7-12,4.3-16.8,12.7-17.3s13.9,3.8,14.6,15.7l1,18l24.9-1.4L97,475.4c-0.4-7.1-1.7-13.3-3.8-18.6c-6-14.8-18.8-22.4-37.8-21.3  c-18.9,1.1-30.7,10-35.1,25.2c-1.6,5.6-2.2,12-1.8,19.1l1.6,29.2l1.2,21.9l2,36c0.3,5.3,1.1,10.1,2.4,14.3  c5.2,17.6,18.5,26.8,39.2,25.6c20.6-1.2,32.8-11.7,36.1-29.5C101.9,573,102.2,568,101.9,562.6L101.9,562.6z"></path>	<path id="Layer_00000033332783891838983340000013525229949435154852_" class="st1" d="M194.6,574.3c-3.9,17.5-16.6,27.6-37.1,28.4  c-20.6,0.8-34.2-8.5-39.3-25.9c-1.3-4.4-2.1-9.4-2.3-14.8l-1.4-35.4l-0.9-22.5l-1.1-29.3c-0.2-7.1,0.5-13.3,2.2-18.8  c4.8-15.3,17.1-24.2,36.2-24.9c19.3-0.7,32.4,7.3,38.2,22.5c2,5.2,3.1,11.2,3.4,18.1l1.1,29.6l0.9,22.8l1.3,34.8  C196,564.5,195.6,569.6,194.6,574.3L194.6,574.3z M169.5,561.6l-1.4-36.8l-0.9-22.7L166,471c-0.5-12-5.9-16.3-14.3-16  c-8.4,0.4-13.5,5.1-13,17.1l1.2,30.9l0.9,22.6l1.4,37c0.3,6.3,1.9,10.5,4.6,13c2.4,2.3,5.7,3.1,9.7,3c3.9-0.1,7.1-1.2,9.3-3.6  C168.4,572.3,169.7,568,169.5,561.6z"></path>	<path id="Layer_00000106853679151200638460000001667171391219694005_" class="st1" d="M293.7,555.6c0.1,6.4-0.5,12.2-1.9,17.2  c-4.3,16-16.5,24.7-36.5,25.1l-41.7,0.9l-0.5-24.9l-1-50l-0.5-22.9l-1-47.8l-0.5-22.2l41.7-0.9c19.5-0.4,31.8,7.3,37.1,22.1  c1.9,5.3,3,11.5,3.1,18.5l0.6,29l0.5,23.2L293.7,555.6z M267.5,557.3l-0.7-34.2l-0.5-23.1l-0.6-29.9c-0.3-12-5.4-16.2-13.8-16  l-14.9,0.3l1.5,69l1,49.9v0.9l14.9-0.3c2-0.1,3.7-0.4,5.3-0.9C264.8,571.2,267.7,566.5,267.5,557.3L267.5,557.3z"></path>	<path id="Layer_00000073714100549328687710000011264455939844541834_" class="st2" d="M317.8,429.1l0.1,23.1  c22.1,0,44.4,0.3,67,0.7h4.8v-24L317.8,429.1z M353.7,572.7h-9.1v-0.1c-8.8-0.1-17.6-0.1-26.4-0.1l0.1,24.2l71.3-0.2v-24  L353.7,572.7z M318.1,499.6l0.1,23.3c18.6,0,50.1,0.2,71.6,0.5V500C368.3,499.7,336.7,499.6,318.1,499.6L318.1,499.6z"></path>	<path id="Layer_00000143590783415990688320000004108896415913607584_" class="st1" d="M487.7,597.7l-26.8-0.4  c-1.4-4.3-2.3-6.9-2.1-20.6v-2.1l0.3-24.2c0.2-15.6-5-21.4-17-21.6l-9.1-0.1l-0.6,45.2l-0.3,23.1l-26.4-0.4l0.3-23.2l0.7-49.5  l0.3-23.5l0.7-47.2l0.3-24.3l39.8,0.5c22.3,0.3,34.1,8.9,37.5,26.1c0.8,3.9,1.2,8.2,1.1,13l-0.2,13.2c-0.1,8.4-1.5,15.3-4.2,20.8  c-2.9,5.9-7.4,10.2-13.5,13c5.4,2.4,9.2,5.9,11.9,10.5c3.9,6.6,5.2,15.2,5.1,25.5l-0.3,24v1.9C485.1,585.5,485.3,591.5,487.7,597.7  L487.7,597.7z M460,470.9c0.1-9.1-2.1-14.3-7.3-16.4c-1.7-0.6-3.6-1-5.9-1l-12.7-0.2v0.7l-0.6,47.2v3.7l10.3,0.1  c4.7,0,8.5-0.9,11.2-3.3c3.1-2.7,4.8-7.2,4.9-14.3L460,470.9z"></path>	<path id="Layer_00000118359269336410222960000003742952259492421311_" class="st0" d="M579,460.1c-3.2-18.9-15.5-29.8-36.7-30.4  c-20.6-0.7-33.5,8.9-38.2,26.6c-1.1,4.3-1.8,9.1-2,14.3c-0.4,13.8,3.5,24.2,9.3,33c6.3,9.6,14.9,17.1,22.4,24.6  c9.6,9.6,17.5,19.1,17,32.9c-0.4,12-5.8,16.1-14.2,15.9c-8.4-0.3-13.5-4.8-13.1-16.7l0.4-12l-24.9-0.8l-0.3,10.3  c-0.2,6.8,0.5,12.9,2,18.2c4.5,15.6,16.6,24.6,35.9,25.2c18.9,0.6,31.4-7.2,37.1-21.9c2.1-5.4,3.3-11.8,3.5-19  c0.4-12.3-2.7-22-7.5-30.2c-5.7-9.8-13.9-17.4-21.4-24.7c-10.7-10.5-20.2-20.5-19.7-35.5c0.2-5.6,1.4-9.6,3.4-12.2  c2.3-2.9,5.8-4.1,10.2-3.9c4.6,0.1,8.1,1.6,10.2,5c1.7,2.7,2.6,6.6,2.4,12l-0.2,6.9l24.9,0.8l0.2-5.3  C580,468.5,579.7,464.1,579,460.1L579,460.1z"></path>	<g id="Layer_00000068651410225733924520000000661526856294937488_">		<path id="Layer_00000065040733352488569080000015888661959520609690_" class="st3" d="M347,56.8c-0.3,26.8-22.4,48.5-49.4,48.3   c-26.9-0.1-48.7-22-48.8-49c-0.1-27.3,22.1-49.4,49.5-49.2C325.7,7.1,347.5,29.4,347,56.8z M319.7,55.7   c-0.2-12-10.1-21.5-22.1-21.3s-21.6,10-21.3,22c0.3,11.9,10.2,21.5,22.1,21.3C310.3,77.5,319.9,67.5,319.7,55.7z"></path>		<path id="Layer_00000131327535805446138790000004655289647914890650_" class="st2" d="M322,124.3l-64.2,91.8l-74.9-30.7l83-30.8   v-30.3l-120.8,46.1v30l120.8,46.1l64.2-91.9l83,30.8l-83,30.7v30.4l120.8-46.1v-30L322,124.3z"></path>	</g></g></svg>